<svg xmlns="http://www.w3.org/2000/svg" viewBox="0 0 128 128" role="img" aria-label="Gabou">
  <rect width="128" height="128" rx="18" fill="#12100c"/>
  <path d="M28 75c0-25 15-45 36-45s36 20 36 45" fill="none" stroke="#c59a52" stroke-width="7" stroke-linecap="round"/>
  <path d="M33 72c10-13 20-19 31-19s21 6 31 19c-8 8-18 12-31 12s-23-4-31-12Z" fill="#f1e6d2"/>
  <path d="M42 79c3 13 11 21 22 21s19-8 22-21" fill="none" stroke="#c59a52" stroke-width="5" stroke-linecap="round"/>
  <path d="M51 61c-5 7-7 14-7 23M64 57c0 9 0 18 0 29M77 61c5 7 7 14 7 23" fill="none" stroke="#12100c" stroke-width="3" stroke-linecap="round" opacity=".7"/>
</svg>
